<?xml version="1.0" standalone="no"?>
<!DOCTYPE svg PUBLIC "-//W3C//DTD SVG 20010904//EN"
 "http://www.w3.org/TR/2001/REC-SVG-20010904/DTD/svg10.dtd">
<svg version="1.0" xmlns="http://www.w3.org/2000/svg"
 width="484.000000pt" height="492.000000pt" viewBox="0 0 484.000000 492.000000"
 preserveAspectRatio="xMidYMid meet">

<g transform="translate(0.000000,492.000000) scale(0.100000,-0.100000)"
fill="#000000" stroke="none">
<path d="M0 2460 l0 -2460 2420 0 2420 0 0 2460 0 2460 -2420 0 -2420 0 0
-2460z m2554 2146 c48 -20 75 -53 93 -116 40 -142 88 -186 246 -229 143 -39
222 -23 314 62 95 88 135 90 271 15 97 -54 147 -100 158 -145 4 -15 -1 -65
-10 -112 -27 -135 0 -208 114 -315 107 -99 167 -118 286 -91 131 29 172 8 254
-130 85 -145 86 -183 4 -275 -30 -33 -61 -75 -70 -92 -28 -54 -29 -136 -4
-230 42 -155 77 -197 214 -248 135 -51 152 -82 144 -263 -7 -152 -26 -177
-172 -222 -73 -23 -115 -64 -162 -160 -41 -83 -53 -177 -35 -267 10 -48 22
-68 71 -123 33 -36 63 -76 66 -91 12 -46 -3 -101 -47 -180 -84 -149 -136 -181
-242 -150 -132 38 -211 12 -329 -112 -61 -64 -80 -91 -92 -133 -20 -66 -20
-80 0 -169 28 -122 6 -159 -143 -245 -82 -47 -140 -63 -188 -51 -15 4 -51 29
-79 56 -67 63 -125 89 -199 90 -60 0 -170 -26 -231 -55 -58 -28 -108 -93 -134
-174 -41 -127 -79 -150 -247 -151 -158 0 -197 24 -235 148 -26 83 -77 149
-137 177 -59 28 -172 55 -233 55 -70 0 -125 -25 -189 -85 -59 -55 -109 -76
-158 -65 -42 10 -187 92 -226 128 -43 41 -53 88 -33 166 33 134 15 196 -91
307 -116 121 -178 143 -321 114 -79 -16 -90 -16 -124 -2 -66 28 -178 211 -178
292 0 43 30 96 79 139 66 59 88 144 65 253 -40 195 -94 258 -257 303 -29 8
-57 24 -71 41 -63 75 -61 316 3 380 16 15 57 36 99 49 82 26 149 77 177 136
29 61 57 176 56 236 0 71 -17 112 -75 177 -72 81 -79 95 -74 150 3 34 20 74
57 139 71 124 119 162 189 149 159 -31 155 -31 215 -13 47 14 71 30 133 88
127 121 151 187 119 331 -27 121 -7 156 137 241 138 81 182 81 273 -2 100 -92
175 -109 314 -73 155 40 215 91 250 209 24 79 51 119 95 138 43 18 246 19 290
0z"/>
<path d="M1567 3680 c-39 -12 -57 -29 -76 -72 -9 -20 -260 -323 -559 -672
-299 -350 -546 -644 -549 -653 -9 -23 23 -43 69 -43 28 0 41 -6 53 -23 8 -13
26 -29 40 -35 13 -6 27 -23 31 -37 3 -14 12 -25 19 -25 20 0 29 -19 36 -81 4
-36 15 -68 30 -89 36 -48 34 -142 -3 -196 -16 -22 -28 -47 -28 -56 0 -9 -13
-26 -30 -38 -16 -12 -30 -28 -30 -36 0 -8 -11 -20 -25 -26 -40 -18 -39 -107 0
-144 14 -13 25 -32 25 -43 0 -11 14 -36 30 -54 17 -19 30 -41 30 -50 0 -24 22
-27 202 -27 l170 0 27 -29 c14 -15 36 -31 48 -35 12 -4 25 -16 28 -27 4 -11
17 -25 30 -31 13 -6 28 -24 34 -39 5 -16 17 -29 26 -29 27 0 35 -47 35 -215 0
-90 3 -170 6 -179 3 -9 14 -16 23 -16 10 0 28 -11 41 -25 13 -14 41 -30 63
-36 24 -6 41 -18 44 -29 10 -39 128 -34 144 6 5 15 17 24 29 24 13 0 24 10 30
25 7 18 21 28 54 36 25 6 52 20 62 30 25 28 131 27 167 -1 14 -11 47 -23 74
-26 79 -9 91 -13 98 -33 3 -11 19 -24 34 -29 16 -6 32 -19 35 -30 4 -11 18
-27 31 -36 19 -13 25 -25 25 -55 0 -28 9 -49 36 -84 20 -26 39 -47 42 -47 5 0
444 428 874 852 369 365 366 359 375 718 13 482 -63 646 -336 726 -9 3 -2 16
22 44 76 83 97 164 97 375 0 241 -35 351 -142 450 -93 87 -201 127 -385 145
-120 12 -1167 12 -1206 0z m1378 -82 c136 -46 214 -109 261 -213 31 -68 44
-156 44 -305 0 -212 -37 -313 -136 -376 -74 -48 -70 -63 26 -84 102 -23 141
-41 198 -95 54 -50 96 -130 112 -215 16 -87 13 -555 -5 -623 -35 -133 -102
-217 -220 -274 -131 -62 -149 -63 -936 -63 -696 0 -709 0 -729 20 -20 20 -20
33 -20 1120 0 1095 0 1100 20 1120 21 21 27 21 663 18 l642 -3 80 -27z"/>
<path d="M2214 3117 c-2 -7 -3 -96 -2 -197 l3 -185 168 -3 c198 -3 224 4 257
72 25 52 28 197 6 251 -28 66 -58 75 -254 75 -131 0 -174 -3 -178 -13z"/>
<path d="M2214 2267 c-2 -7 -3 -102 -2 -212 l3 -200 245 -3 c210 -3 249 -1
276 13 55 29 64 58 64 200 0 214 -2 215 -339 215 -187 0 -243 -3 -247 -13z"/>
</g>
</svg>
